<?xml version="1.0" encoding="UTF-8"?>
<svg width="16px" height="22px" viewBox="0 0 16 22" version="1.1" xmlns="http://www.w3.org/2000/svg" xmlns:xlink="http://www.w3.org/1999/xlink">
    <!-- Generator: sketchtool 49 (51002) - http://www.bohemiancoding.com/sketch -->
    <title>CBB1CA69-AF78-44FC-9D3E-0DAB2F089A59</title>
    <desc>Created with sketchtool.</desc>
    <defs></defs>
    <g id="Page-1" stroke="none" stroke-width="1" fill="none" fill-rule="evenodd">
        <g id="Медиасервисы-kit" transform="translate(-1515.000000, -253.000000)">
            <g id="lock" transform="translate(1515.000000, 253.000000)">
                <path d="M8,0 C10.7614237,-5.07265313e-16 13,2.23857625 13,5 L13,8 L3,8 L3,5 C3,2.23857625 5.23857625,5.07265313e-16 8,0 Z M8,2 C6.34314575,2 5,3.34314575 5,5 L5,6 L11,6 L11,5 C11,3.34314575 9.65685425,2 8,2 Z" id="Combined-Shape" fill="#E9E9E9"></path>
                <path d="M2.90909091,6 L13.0909091,6 C14.6975556,6 16,7.30244436 16,8.90909091 L16,16.1818182 C16,19.3951113 13.3951113,22 10.1818182,22 L5.81818182,22 C2.60488873,22 3.9351491e-16,19.3951113 0,16.1818182 L0,8.90909091 C-1.96757455e-16,7.30244436 1.30244436,6 2.90909091,6 Z" id="Combined-Shape-Copy" fill="#E9E9E9"></path>
                <path d="M7.27272727,14.0188086 C6.83796264,13.7738602 6.54545455,13.3160333 6.54545455,12.7916667 C6.54545455,12.0092633 7.19667673,11.375 8,11.375 C8.80332327,11.375 9.45454545,12.0092633 9.45454545,12.7916667 C9.45454545,13.3160333 9.16203736,13.7738602 8.72727273,14.0188086 L8.72727273,14.8977273 C8.72727273,15.2993889 8.40166164,15.625 8,15.625 C7.59833836,15.625 7.27272727,15.2993889 7.27272727,14.8977273 L7.27272727,14.0188086 Z" id="Combined-Shape" fill="#B8B8B8"></path>
            </g>
        </g>
    </g>
</svg>